<?xml version="1.0" encoding="UTF-8"?>
<svg id="Layer_2" data-name="Layer 2" xmlns="http://www.w3.org/2000/svg" viewBox="0 0 214.84 106.02">
  <defs>
    <style>
      .cls-1 {
        fill: #fef0f4;
      }

      .cls-2 {
        fill: #a14d9d;
      }
    </style>
  </defs>
  <g id="divisions_light" data-name="divisions light">
    <g id="logos_music" data-name="logos music">
      <g id="logotype">
        <g>
          <path class="cls-1" d="M21.02,72.14c-2.3,0-4.7-.19-7.2-.58-2.5-.38-4.9-.91-7.2-1.58-2.3-.67-4.39-1.49-6.26-2.45l1.44-17.78h1.3l5.33,10.94c1.1,2.3,2.38,4.24,3.82,5.8,1.44,1.56,3.05,2.71,4.82,3.46,1.78.75,3.6,1.12,5.47,1.12,1.58,0,2.93-.22,4.03-.65,1.1-.43,1.96-1.08,2.56-1.94.6-.86.9-1.87.9-3.02,0-1.44-.4-2.82-1.19-4.14-.79-1.32-2.09-2.7-3.89-4.14-1.8-1.44-4.28-3.05-7.45-4.82-4.37-2.74-7.82-5.14-10.37-7.2-2.54-2.06-4.37-4-5.47-5.8-1.1-1.8-1.66-3.68-1.66-5.65s.5-4,1.51-5.8c1.01-1.8,2.46-3.36,4.36-4.68,1.9-1.32,4.15-2.35,6.77-3.1,2.62-.74,5.56-1.12,8.82-1.12,2.83,0,5.48.22,7.96.65,2.47.43,4.73,1.02,6.77,1.76,2.04.74,3.73,1.6,5.08,2.56l-3.1,16.92h-1.3l-2.59-6.55c-1.39-3.46-2.8-6.23-4.21-8.32-1.42-2.09-2.94-3.6-4.57-4.54-1.63-.94-3.43-1.4-5.4-1.4s-3.66.24-5.08.72c-1.42.48-2.5,1.16-3.24,2.05-.74.89-1.12,1.98-1.12,3.28s.5,2.7,1.51,4.07c1.01,1.37,2.69,2.9,5.04,4.61,2.35,1.7,5.54,3.71,9.58,6.01,3.07,1.73,5.64,3.32,7.7,4.79,2.06,1.46,3.73,2.86,5,4.18,1.27,1.32,2.17,2.64,2.7,3.96.53,1.32.79,2.72.79,4.21,0,2.11-.43,3.96-1.3,5.54-.86,1.58-2.04,2.93-3.53,4.03-1.49,1.1-3.18,1.99-5.08,2.66-1.9.67-3.88,1.16-5.94,1.48-2.06.31-4.1.47-6.12.47Z"/>
          <path class="cls-1" d="M68.76,20.08v.72l-3.38.79v47.95l3.38.79v.72h-21.53v-.72l3.89-.79V21.6l-3.89-.79v-.72h21.53ZM85.25,45.28v2.02h-20.59v-.72l20.59-1.3ZM102.81,20.08v.72l-3.96.79v47.95l3.96.79v.72h-21.53v-.72l3.31-.79V21.6l-3.31-.79v-.72h21.53Z"/>
          <path class="cls-1" d="M129.53,20.08v.72l-3.96.79v47.95l3.96.79v.72h-22.1v-.72l3.89-.79V21.6l-3.89-.79v-.72h22.1Z"/>
          <path class="cls-2" d="M156.24,20.08v.72l-3.96.79v47.95l3.96.79v.72h-22.1v-.72l3.89-.79V21.6l-3.89-.79v-.72h22.1Z"/>
          <path class="cls-1" d="M182.3,71.06l-19.58-49.46-3.74-.79v-.72h24.34v.72l-5.11.72,15.41,38.95h.86l3.24-8.71c1.06-2.69,1.87-5.33,2.45-7.92.58-2.59.86-4.97.86-7.13,0-3.84-.84-7.13-2.52-9.86-1.68-2.74-4.15-4.75-7.42-6.05v-.72h23.76v.72l-3.96.79-19.58,49.46h-9Z"/>
        </g>
        <path class="cls-1" d="M119.53.53c-.52-.71-1.58-.71-2.1,0l-10.01,13.76v.76h22.12v-.76L119.53.53Z"/>
        <path class="cls-2" d="M146.24.53c-.52-.71-1.58-.71-2.1,0l-10.01,13.76v.76h22.12v-.76l-10.01-13.76Z"/>
        <g>
          <path class="cls-1" d="M0,105.48v-.36l2.6-.51v-23.81l-2.53-.51v-.36h4.44l11,23.59-.4-.43h.94l-.36.43,9.45-23.59h4.44v.36l-2.38.51v23.81l2.38.51v.36h-7.11v-.36l2.49-.51v-20.99h-.58l-8.69,21.86h-1.77l-10.17-21.68h-.61v13.99c0,.79.05,1.54.16,2.24.11.7.28,1.35.51,1.95.23.6.55,1.12.96,1.57.41.45.93.8,1.57,1.06.64.27,1.4.43,2.29.51v.36H0Z"/>
          <path class="cls-1" d="M63.16,105.91c-3.37,0-5.89-.96-7.57-2.87-1.68-1.91-2.53-4.75-2.53-8.53v-13.71l-2.38-.51v-.36h7.07v.36l-2.45.51v13.49c0,3.53.72,6.18,2.15,7.94,1.43,1.76,3.56,2.63,6.4,2.63,2.57,0,4.5-.84,5.77-2.53,1.27-1.68,1.91-4.21,1.91-7.57v-7.5c0-.96-.1-1.84-.29-2.63-.19-.79-.48-1.48-.87-2.06-.39-.58-.87-1.06-1.46-1.44-.59-.38-1.29-.66-2.11-.83v-.36h7.86v.36l-2.52.51v13.63c0,3.8-.75,6.66-2.24,8.58-1.49,1.92-3.74,2.89-6.74,2.89Z"/>
          <path class="cls-1" d="M106.08,106.02c-1.11,0-2.24-.13-3.41-.38-1.17-.25-2.3-.61-3.41-1.08-1.11-.47-2.16-1.04-3.17-1.71l.72-7.61h.43l.54,4.51c.12,1.2.54,2.23,1.26,3.08.72.85,1.71,1.51,2.96,1.97,1.25.46,2.67.69,4.26.69s2.89-.2,3.99-.61c1.09-.41,1.94-1,2.52-1.79.59-.78.88-1.71.88-2.8s-.26-1.94-.78-2.71c-.52-.77-1.36-1.48-2.54-2.15-1.18-.66-2.78-1.33-4.8-2-2.24-.79-4.01-1.57-5.32-2.33-1.31-.76-2.24-1.57-2.8-2.43-.55-.87-.83-1.88-.83-3.03,0-.94.21-1.79.63-2.56.42-.77,1.03-1.43,1.82-1.98.79-.55,1.76-.97,2.9-1.26,1.14-.29,2.42-.43,3.84-.43s2.6.14,3.75.41c1.15.28,2.21.65,3.17,1.12.96.47,1.79,1,2.49,1.61l-.97,6.96h-.43l-.25-3.17c-.14-1.47-.54-2.67-1.17-3.61-.64-.94-1.52-1.63-2.65-2.09-1.13-.46-2.49-.68-4.08-.68s-2.85.19-3.93.56c-1.08.37-1.91.91-2.49,1.62-.58.71-.87,1.56-.87,2.54s.26,1.86.79,2.62c.53.76,1.41,1.47,2.63,2.13,1.23.66,2.9,1.35,5.01,2.07,1.68.55,3.1,1.11,4.24,1.66,1.14.55,2.06,1.14,2.76,1.75.7.61,1.2,1.27,1.5,1.98.3.71.45,1.52.45,2.43s-.16,1.69-.47,2.4c-.31.71-.76,1.33-1.33,1.86-.58.53-1.26.98-2.06,1.35-.79.37-1.68.65-2.67.83-.99.18-2.03.27-3.14.27Z"/>
          <path class="cls-1" d="M145.32,79.94v.36l-2.38.51v23.81l2.38.51v.36h-7v-.36l2.34-.51v-23.81l-2.34-.51v-.36h7Z"/>
          <path class="cls-1" d="M189.44,100.61c-.67,1.18-1.51,2.17-2.51,2.98-1,.81-2.11,1.41-3.34,1.82-1.23.41-2.54.61-3.93.61-1.71,0-3.26-.3-4.65-.88-1.4-.59-2.6-1.45-3.61-2.6-1.01-1.14-1.77-2.52-2.29-4.15-.52-1.62-.78-3.47-.78-5.54s.28-3.82.83-5.46c.55-1.65,1.35-3.07,2.4-4.26,1.05-1.19,2.28-2.11,3.72-2.76,1.43-.65,3.02-.97,4.78-.97,1.39,0,2.68.14,3.86.41,1.18.28,2.24.68,3.17,1.21.94.53,1.74,1.17,2.42,1.91l-1.8,8.84h-.61l.14-5.16c.07-1.54-.16-2.8-.69-3.79-.53-.99-1.36-1.72-2.49-2.2-1.13-.48-2.6-.72-4.4-.72-1.32,0-2.55.31-3.68.92-1.13.61-2.09,1.48-2.89,2.6s-1.41,2.43-1.86,3.93c-.45,1.5-.67,3.14-.67,4.92,0,1.88.22,3.58.67,5.1.44,1.53,1.1,2.85,1.97,3.97s1.93,1.97,3.19,2.56,2.72.88,4.38.88,3.25-.38,4.71-1.15c1.45-.77,2.65-1.86,3.59-3.28l.36.25Z"/>
        </g>
      </g>
    </g>
  </g>
</svg>