<?xml version="1.0" encoding="UTF-8"?>
<svg id="Layer_2" xmlns="http://www.w3.org/2000/svg" viewBox="0 0 305.6 107.61">
  <defs>
    <style>
      .cls-1 {
        fill: #231f20;
      }

      .cls-2 {
        fill: #ee1c4e;
      }
    </style>
  </defs>
  <g id="Logo">
    <g>
      <path class="cls-1" d="M47.9,107.48H9.09L0,84.3h3.59c2.13,5.64,5.04,9.93,8.71,12.87,3.67,2.95,8.39,4.91,14.15,5.89,5.76.98,12.91,1.47,21.45,1.47,3.76,0,7.21-1.51,10.37-4.55,3.16-3.03,4.74-6.68,4.74-10.95,0-2.82-.94-5.76-2.82-8.84-3.93-6.66-12.6-12.04-26-16.14-5.72-1.71-10.55-3.33-14.47-4.87C7.34,54.25.98,47.2.64,38.06c0-4.01,1.69-7.49,5.06-10.44,3.37-2.95,8.56-4.42,15.56-4.42h47.26l-15.5,22.41h-3.59c3.59-5.81,5.38-9.99,5.38-12.55,0-4.52-4.87-6.79-14.6-6.79h-15.75c-3.59,0-6.19.51-7.81,1.54-2.73,1.62-4.1,3.8-4.1,6.53.34,4.35,3.24,7.77,8.71,10.25,4.95,2.22,10.59,4.23,16.91,6.02,10.84,3.07,19.25,6.49,25.23,10.25,8.71,5.38,13.06,12.64,13.06,21.77,0,4.87-1.24,9.22-3.71,13.06-5.12,7.86-13.41,11.78-24.85,11.78Z"/>
      <path class="cls-1" d="M157.92,107.61h-28.18v-1.15c4.61,0,6.92-3.37,6.92-10.12v-38.3c-9.22.43-17.25,3.05-24.08,7.88-6.83,4.83-10.8,11.93-11.91,21.33v8.33c0,7.17,2.31,10.8,6.92,10.89v1.15h-28.18c4.61-.85,6.92-4.87,6.92-12.04v-60.07c0-7.26-2.31-10.89-6.92-10.89v-1.28h28.18v1.28c-4.61,0-6.92,3.37-6.92,10.12v41.11c3.16-6.57,7.96-11.59,14.41-15.05,6.45-3.46,13.64-5.36,21.58-5.7v-19.6c0-7.26-2.3-10.89-6.92-10.89v-1.28h28.18v1.28c-4.61,0-6.92,3.37-6.92,10.12v60.84c0,7.17,2.31,10.8,6.92,10.89v1.15Z"/>
      <path class="cls-1" d="M190.2,107.61h-28.05c4.53-.85,6.79-4.87,6.79-12.04v-60.07c0-7.26-2.26-10.89-6.79-10.89v-1.28h28.05v1.28c-4.53,0-6.79,3.37-6.79,10.12v60.84c0,7.17,2.26,10.8,6.79,10.89v1.15Z"/>
      <path class="cls-2" d="M222.86,107.61h-28.05c4.53-.85,6.79-4.87,6.79-12.04v-60.07c0-7.26-2.26-10.89-6.79-10.89v-1.28h28.05v1.28c-4.53,0-6.79,3.37-6.79,10.12v60.84c0,7.17,2.26,10.8,6.79,10.89v1.15Z"/>
      <path class="cls-1" d="M279.21,107.61h-6.02c-6.66,0-11.04-.92-13.13-2.75-2.09-1.83-3.65-4.67-4.67-8.52l-21-61.99c-1.88-5.98-4.53-9.31-7.94-9.99v-1.02h5.89c6.74,0,11.16.92,13.26,2.75,2.09,1.84,3.61,4.72,4.55,8.65l20.88,63.78,23.05-62.5c.85-1.88,1.28-3.63,1.28-5.25,0-2.9-2.14-4.35-6.4-4.35-3.25,0-6.75.21-10.5.64-3.76.43-6.15,1.71-7.17,3.84h-1.67l2.82-7.56h33.17l-1.02,3.07h-7.94c1.28.94,1.92,2.31,1.92,4.1,0,1.62-.43,3.54-1.28,5.76l-24.46,66.09c1.54,2.65,3.67,4.1,6.4,4.35v.9Z"/>
    </g>
    <path class="cls-1" d="M142.71.6l-9.35,12.17c-.77,1.01-.06,2.46,1.21,2.46h18.71c1.27,0,1.99-1.46,1.21-2.46l-9.35-12.17c-.61-.8-1.81-.8-2.43,0Z"/>
    <path class="cls-1" d="M174.96.6l-9.35,12.17c-.77,1.01-.06,2.46,1.21,2.46h18.71c1.27,0,1.99-1.46,1.21-2.46l-9.35-12.17c-.61-.8-1.81-.8-2.43,0Z"/>
  </g>
</svg>